# xmcd
#
# Track frame offsets: 
#        150
#        23112
#        47614
#        73827
#        96292
#        115687
#        137717
#        164020
#        180780
#        202487
#
# Disc length: 3051 seconds
#
# Revision: 0
# Processed by: cddbd v1.5.2PL0 Copyright (c) Steve Scherf et al.
# Submitted via: ExactAudioCopyFreeDBPlugin 1.0
#
DISCID=8d0be90a
DTITLE=古内東子 - 恋
DYEAR=1997
DGENRE=JPop
TTITLE0=悲しいうわさ
TTITLE1=ブレーキ
TTITLE2=大丈夫(remix)
TTITLE3=月明かり
TTITLE4=そして二人は恋をした
TTITLE5=ケンカ(album version)
TTITLE6=どれくらい
TTITLE7=余計につらくなるよ
TTITLE8=いそがないで
TTITLE9=宝物(album version)
EXTD=
EXTT0=
EXTT1=
EXTT2=
EXTT3=
EXTT4=
EXTT5=
EXTT6=
EXTT7=
EXTT8=
EXTT9=
PLAYORDER=
